<svg xmlns="http://www.w3.org/2000/svg" width="161.853" height="204.419" viewBox="0 0 161.853 204.419">
  <g id="magnifier-387-517962" transform="translate(2.507 2.5)">
    <g id="Grupo_166" data-name="Grupo 166" transform="translate(0 0)">
      <path id="Trazado_895" data-name="Trazado 895" d="M13.61,44.607l11.613-14.76" transform="translate(24.327 85.838)" fill="none" stroke="#000" stroke-linecap="round" stroke-linejoin="round" stroke-miterlimit="10" stroke-width="5"/>
      <ellipse id="Elipse_87" data-name="Elipse 87" cx="58.55" cy="74.438" rx="58.55" ry="74.438" transform="translate(39.746)" fill="none" stroke="#000" stroke-linecap="round" stroke-linejoin="round" stroke-miterlimit="10" stroke-width="5"/>
      <path id="Trazado_896" data-name="Trazado 896" d="M18.6,49.6,30.21,34.836" transform="translate(35.643 101.575)" fill="none" stroke="#000" stroke-linecap="round" stroke-linejoin="round" stroke-miterlimit="10" stroke-width="5"/>
      <path id="Trazado_897" data-name="Trazado 897" d="M60.314,63.233l-27.4,34.834c-7.8,9.916-19.638,11.022-26.363,2.472l-.023-.029C-.2,91.956.67,76.9,8.47,66.992l27.4-34.838L60.311,63.228Z" transform="translate(-2 93.115)" fill="none" stroke="#000" stroke-linecap="round" stroke-linejoin="round" stroke-miterlimit="10" stroke-width="5"/>
    </g>
    <g id="Grupo_167" data-name="Grupo 167" transform="translate(0 0)">
      <path id="Trazado_898" data-name="Trazado 898" d="M13.61,44.607l11.613-14.76" transform="translate(24.327 85.838)" fill="none" stroke="#000" stroke-linecap="round" stroke-linejoin="round" stroke-miterlimit="10" stroke-width="5"/>
      <ellipse id="Elipse_88" data-name="Elipse 88" cx="58.55" cy="74.438" rx="58.55" ry="74.438" transform="translate(39.746)" fill="none" stroke="#000" stroke-linecap="round" stroke-linejoin="round" stroke-miterlimit="10" stroke-width="5"/>
      <path id="Trazado_899" data-name="Trazado 899" d="M18.6,49.6,30.21,34.836" transform="translate(35.643 101.575)" fill="none" stroke="#000" stroke-linecap="round" stroke-linejoin="round" stroke-miterlimit="10" stroke-width="5"/>
      <path id="Trazado_900" data-name="Trazado 900" d="M60.314,63.233l-27.4,34.834c-7.8,9.916-19.638,11.022-26.363,2.472l-.023-.029C-.2,91.956.67,76.9,8.47,66.992l27.4-34.838L60.311,63.228Z" transform="translate(-2 93.115)" fill="none" stroke="#000" stroke-linecap="round" stroke-linejoin="round" stroke-miterlimit="10" stroke-width="5"/>
    </g>
  </g>
</svg>
