<svg xmlns="http://www.w3.org/2000/svg" width="156.081" height="165.573" viewBox="0 0 156.081 165.573">
  <g id="user-setting-11-517987" transform="translate(2.5 2.5)">
    <path id="Trazado_1498" data-name="Trazado 1498" d="M131.983,100.99a61.163,61.163,0,0,1-3.525,9l8.788,22.377-12.587,13.378-21.054-9.34a54.17,54.17,0,0,1-8.511,3.794l-8.653,22.377h-17.8L59.987,140.2a52.19,52.19,0,0,1-8.511-3.794l-21.054,9.34L17.835,132.365l8.788-22.377a61.158,61.158,0,0,1-3.525-9L2,91.747V72.873L23.1,63.63a61.159,61.159,0,0,1,3.525-9L17.835,32.208,30.422,18.88l21.054,9.34a52.191,52.191,0,0,1,8.511-3.8L68.639,2l17.8.05,8.653,22.373a54.183,54.183,0,0,1,8.511,3.8l21.054-9.34,12.587,13.328-8.788,22.423a61.164,61.164,0,0,1,3.525,9l21.1,9.243V91.747l-21.1,9.243Z" transform="translate(-2 -2)" fill="none" stroke="#000" stroke-linecap="round" stroke-linejoin="round" stroke-miterlimit="10" stroke-width="5"/>
    <ellipse id="Elipse_172" data-name="Elipse 172" cx="41.525" cy="38.754" rx="41.525" ry="38.754" transform="translate(34.015 41.533)" fill="none" stroke="#000" stroke-linecap="round" stroke-linejoin="round" stroke-miterlimit="10" stroke-width="5"/>
    <path id="Trazado_1499" data-name="Trazado 1499" d="M18.006,48.444c3.705-11.9,15.392-20.078,28.669-20.065S71.61,36.538,75.338,48.412" transform="translate(28.878 59.866)" fill="none" stroke="#000" stroke-linecap="round" stroke-linejoin="round" stroke-miterlimit="10" stroke-width="5"/>
    <ellipse id="Elipse_173" data-name="Elipse 173" cx="10.754" cy="10.036" rx="10.754" ry="10.036" transform="translate(64.798 56.813)" fill="none" stroke="#000" stroke-linecap="round" stroke-linejoin="round" stroke-miterlimit="10" stroke-width="5"/>
  </g>
</svg>
