<svg xmlns="http://www.w3.org/2000/svg" width="144.05" height="198.403" viewBox="0 0 144.05 198.403">
  <g id="checklist-527-517901" transform="translate(2.5 2.5)">
    <path id="Trazado_427" data-name="Trazado 427" d="M56.69,80.19H18.355a4.235,4.235,0,0,1-4.124-4.335V35.591a4.23,4.23,0,0,1,4.124-4.331H56.69a4.233,4.233,0,0,1,4.127,4.331V75.855A4.237,4.237,0,0,1,56.69,80.19Z" transform="translate(10.15 86.633)" fill="none" stroke="#000" stroke-linecap="round" stroke-linejoin="round" stroke-miterlimit="10" stroke-width="5"/>
    <path id="Trazado_428" data-name="Trazado 428" d="M31.217,46.841l11.362,11.93,23.3-24.477" transform="translate(58.32 95.824)" fill="none" stroke="#000" stroke-linecap="round" stroke-linejoin="round" stroke-miterlimit="10" stroke-width="5"/>
    <path id="Trazado_429" data-name="Trazado 429" d="M103.131,2H15.551a7.876,7.876,0,0,0-7.676,8.062V187.341a7.877,7.877,0,0,0,7.676,8.062h123.7a7.876,7.876,0,0,0,7.676-8.062V48" transform="translate(-7.875 -2)" fill="none" stroke="#000" stroke-linecap="round" stroke-linejoin="round" stroke-miterlimit="10" stroke-width="5"/>
    <path id="Trazado_430" data-name="Trazado 430" d="M32.708,2V39.939A7.873,7.873,0,0,0,40.384,48H76.5Z" transform="translate(62.548 -2)" fill="none" stroke="#000" stroke-linecap="round" stroke-linejoin="round" stroke-miterlimit="10" stroke-width="5"/>
    <g id="Grupo_68" data-name="Grupo 68" transform="translate(21.583 28.625)">
      <path id="Trazado_431" data-name="Trazado 431" d="M31.141,49.531l-13.322-14a16.039,16.039,0,0,1,0-21.894,14.244,14.244,0,0,1,20.844,0l13.322,14" transform="translate(-13.502 -9.105)" fill="none" stroke="#000" stroke-linecap="round" stroke-linejoin="round" stroke-miterlimit="10" stroke-width="5"/>
      <path id="Trazado_432" data-name="Trazado 432" d="M26.187,64.318a30.842,30.842,0,0,1,0-42.107,27.4,27.4,0,0,1,40.089,0Z" transform="translate(-1.076 4.18)" fill="none" stroke="#000" stroke-linecap="round" stroke-linejoin="round" stroke-miterlimit="10" stroke-width="5"/>
      <path id="Trazado_433" data-name="Trazado 433" d="M25.273,20.88l17.7,18.591" transform="translate(19.881 26.565)" fill="none" stroke="#000" stroke-linecap="round" stroke-linejoin="round" stroke-miterlimit="10" stroke-width="5"/>
    </g>
  </g>
</svg>
