<svg xmlns="http://www.w3.org/2000/svg" width="900.873" height="793.07" viewBox="0 0 900.873 793.07">
  <g id="main2" transform="translate(-28.673 0)">
    <path id="Trazado_48" data-name="Trazado 48" d="M972.476,494.544c-.151,11.834-.693,25.092-1.908,39.061l34.087-42.5.24.665a106.32,106.32,0,0,0-12.263-27.185l.27.626Z" transform="translate(-135.228 -53.465)" fill="#57b894"/>
    <path id="Trazado_49" data-name="Trazado 49" d="M972.5,492.468l19.786-28.418c-5.688-8.57-12.5-15.206-20.282-19.253-.4-.211-.811-.407-1.217-.6C971.088,447.4,972.738,466.214,972.5,492.468Z" transform="translate(-135.228 -53.465)" fill="#57b894"/>
    <path id="Trazado_50" data-name="Trazado 50" d="M1008.92,574.963q1.257-7.433,1.951-14.833L959.464,600.5l-.069-.357q-1.16,4.368-2.42,8.587l51.822-34.556Z" transform="translate(-135.228 -53.465)" fill="#57b894"/>
    <path id="Trazado_51" data-name="Trazado 51" d="M965.328,573.316l46.007-42.639.18.738a167.144,167.144,0,0,0-6.405-38.93L970.373,535.8Q968.571,555.429,965.328,573.316Z" transform="translate(-135.228 -53.465)" fill="#57b894"/>
    <path id="Trazado_52" data-name="Trazado 52" d="M969.495,535.063l-61.541-61.156.267-.747a139.57,139.57,0,0,0-12.458,25.22L965.8,564.8C967.463,554.416,968.654,544.389,969.495,535.063Z" transform="translate(-135.228 -53.465)" fill="#57b894"/>
    <path id="Trazado_53" data-name="Trazado 53" d="M964.189,574.089q.706-3.8,1.325-7.558l-70.291-66.664.26-.752q-1.744,4.653-3.273,9.605l.255-.755Z" transform="translate(-135.228 -53.465)" fill="#57b894"/>
    <path id="Trazado_54" data-name="Trazado 54" d="M959.831,598.452l50.976-40.037.149.765a199.591,199.591,0,0,0,.6-26.9L964.928,575.5Q962.7,587.411,959.831,598.452Z" transform="translate(-135.228 -53.465)" fill="#57b894"/>
    <path id="Trazado_55" data-name="Trazado 55" d="M887.326,571.374l57.64,66.821a240.062,240.062,0,0,0,10.127-26.929l-69.37-64.9A193.081,193.081,0,0,0,887,572.181Z" transform="translate(-135.228 -53.465)" fill="#57b894"/>
    <path id="Trazado_56" data-name="Trazado 56" d="M969.8,444.194l.468-.242c-12.1-5.592-24.768-4.183-36.578,2.879l37.86,45.644C971.8,464.07,969.832,444.475,969.8,444.194Z" transform="translate(-135.228 -53.465)" fill="#57b894"/>
    <path id="Trazado_57" data-name="Trazado 57" d="M955.506,613.512A238.508,238.508,0,0,1,946.35,637.8l52.3-31.011.1.773a94.552,94.552,0,0,0,8.186-22.417q1.023-4.595,1.82-9.2l-52.44,34.968C956.044,611.777,955.78,612.652,955.506,613.512Z" transform="translate(-135.228 -53.465)" fill="#57b894"/>
    <path id="Trazado_58" data-name="Trazado 58" d="M971.529,494.592,932.8,447.9l.3-.714c-8.862,5.454-17.222,14.1-24.479,25.358L969.659,533.2C970.85,519.39,971.381,506.288,971.529,494.592Z" transform="translate(-135.228 -53.465)" fill="#57b894"/>
    <path id="Trazado_59" data-name="Trazado 59" d="M955.589,609.658a323.934,323.934,0,0,0,8.281-33.876L891.97,509.5q-2.042,6.718-3.658,13.942a116.076,116.076,0,0,0-2.539,20.98l69.766,65.273Z" transform="translate(-135.228 -53.465)" fill="#57b894"/>
    <path id="Trazado_60" data-name="Trazado 60" d="M1029.65,681.375c-7.665,9.018-16.538,18.884-26.384,28.867l53.363-10.995-.24.665a106.326,106.326,0,0,0,7.894-28.759l-.191.654Z" transform="translate(-135.228 -53.465)" fill="#57b894"/>
    <path id="Trazado_61" data-name="Trazado 61" d="M1061.02,642.759c-.177-.42-.365-.831-.554-1.24-1.81,2.66-12.539,18.2-29.469,38.271l33.364-9.267C1065.44,660.295,1064.43,650.839,1061.02,642.759Z" transform="translate(-135.228 -53.465)" fill="#57b894"/>
    <path id="Trazado_62" data-name="Trazado 62" d="M952.221,754.365q-3.679,2.625-7.341,5.07l61.953,6.438-.408.682q5.709-4.924,10.964-10.18l-65.342-1.691Z" transform="translate(-135.228 -53.465)" fill="#57b894"/>
    <path id="Trazado_63" data-name="Trazado 63" d="M973.9,737.484l62.63-3.5-.332.683A167.155,167.155,0,0,0,1056.1,700.6l-54.38,11.2Q987.81,725.777,973.9,737.484Z" transform="translate(-135.228 -53.465)" fill="#57b894"/>
    <path id="Trazado_64" data-name="Trazado 64" d="M953.638,753.338l64.8,1.677-.373.684a199.573,199.573,0,0,0,17.619-20.334l-63.477,3.544Q962.888,746.663,953.638,753.338Z" transform="translate(-135.228 -53.465)" fill="#57b894"/>
    <path id="Trazado_65" data-name="Trazado 65" d="M876.508,789.822c.431-.49.867-.989,1.316-1.509a166.1,166.1,0,0,0,37.647-13.177l-.935-46.477q.679-1.822,1.309-3.669l.995,49.476a240.039,240.039,0,0,0,24.975-14.281l-10.987-86.047q.668-.4,1.363-.819l10.973,85.937.059.006a323.977,323.977,0,0,0,27.985-20.809L959.77,653.821q.662-.546,1.325-1.1l11.439,84.635q2.97-2.479,5.841-4.976l-10.358-85.745q.658-.606,1.314-1.223L979.7,731.222c7.905-6.932,15.218-13.9,21.814-20.542l-8.392-86.353.682-.405c-2.363.765-4.755,1.633-7.167,2.583a122.313,122.313,0,0,0,11.456-17.678l-52.8,31.308a183.507,183.507,0,0,1-11.44,21.317c-.938.993-1.87,2-2.791,3.034l.134,1.05q-.614.914-1.236,1.815l-.178-1.4c-.525.605-1.045,1.222-1.564,1.84a172.837,172.837,0,0,0,16.119-28.209L887.12,573.253c.719,6.162,1.68,12.352,2.814,18.481a104.983,104.983,0,0,0-19.081-20.7l.45.511-10.357,34.214c3.514,11.3,7.1,24.078,10.259,37.738l19.014-50.254q.216,1.14.44,2.276l-18.965,50.125q4.358,19.225,6.8,37.239l23.783-42.6q.276.874.551,1.736l-24.04,43.065q1.562,12.021,2.248,23.408l29.538-44.042q.3.815.6,1.6l-29.85,44.508-.176-.318q.247,4.513.352,8.915l33.723-42.7q.336.831.624,1.533L881.54,721.423c.015.91.034,1.824.04,2.727a238.483,238.483,0,0,1-1.2,25.925l3.276-3.725q-.87,2.109-1.694,4.159l-1.863,2.118c-.148,1.283-.311,2.554-.481,3.818q-.953,2.458-1.832,4.8.715-4.394,1.233-8.842L804.1,707c21.58,47,59.625,90.7,62.059,93.475q2.454-5.3,4.428-10.84c.447-.069.894-.143,1.34-.216-.154.443-.305.889-.464,1.329-.233.038-.468.082-.7.119l.608.132q-1.405,3.881-3,7.584c1.5-1.513,3.745-3.851,6.465-6.877,17.209,3.346,63.378,9.944,101.654-5.974l-60.632-9.561a167.753,167.753,0,0,1-39.349,13.651Zm37.686-78.2,1.352-1.537.044,2.183-1.352,1.537Z" transform="translate(-135.228 -53.465)" fill="#57b894"/>
    <path id="Trazado_66" data-name="Trazado 66" d="M1059.71,640.891l.515.112c-5.753-12.024-16.408-19.019-30.009-21.113l.046,59.3C1048.57,657.475,1059.55,641.126,1059.71,640.891Z" transform="translate(-135.228 -53.465)" fill="#57b894"/>
    <path id="Trazado_67" data-name="Trazado 67" d="M940.7,762.179a238.475,238.475,0,0,1-22.541,12.863l60.057,9.47-.416.658a94.561,94.561,0,0,0,20.6-12.044q3.719-2.886,7.27-5.926l-62.692-6.516C942.223,761.185,941.461,761.69,940.7,762.179Z" transform="translate(-135.228 -53.465)" fill="#57b894"/>
    <path id="Trazado_68" data-name="Trazado 68" d="M1002.83,709.351c9.727-9.877,18.492-19.63,26.066-28.544l-.047-60.663.684-.361c-10.3-1.451-22.257-.125-35.027,3.918Z" transform="translate(-135.228 -53.465)" fill="#57b894"/>
    <path id="Trazado_69" data-name="Trazado 69" d="M870.359,570.64c-8.059-6.392-16.589-10.6-25.24-12.041-.45-.075-.9-.136-1.343-.2,1.278,2.953,8.662,20.336,16.55,45.379Z" transform="translate(-135.228 -53.465)" fill="#57b894"/>
    <path id="Trazado_70" data-name="Trazado 70" d="M870.635,645.219l-77.43-39.139.023-.793a139.549,139.549,0,0,0-4.053,27.835l87.132,41.519C874.684,664.253,872.717,654.348,870.635,645.219Z" transform="translate(-135.228 -53.465)" fill="#57b894"/>
    <path id="Trazado_71" data-name="Trazado 71" d="M876.576,676.376,789.122,634.7l.014-.8q-.22,4.964-.144,10.146l.009-.8,88.65,40.716Q877.148,680.138,876.576,676.376Z" transform="translate(-135.228 -53.465)" fill="#57b894"/>
    <path id="Trazado_72" data-name="Trazado 72" d="M880.492,722.143l-86.034-40.282a193.08,193.08,0,0,0,9.195,24.157l.06-.867,75.471,45.732a240.068,240.068,0,0,0,1.307-28.74Z" transform="translate(-135.228 -53.465)" fill="#57b894"/>
    <path id="Trazado_73" data-name="Trazado 73" d="M842.841,558.7l.37-.375c-13.236-1.578-24.848,3.677-33.9,14.044l50.114,31.707C850.887,576.988,842.955,558.963,842.841,558.7Z" transform="translate(-135.228 -53.465)" fill="#57b894"/>
    <path id="Trazado_74" data-name="Trazado 74" d="M860.06,606.1,808.8,573.666l.061-.771c-6.742,7.926-12.021,18.732-15.442,31.682l76.8,38.82C867.079,629.9,863.534,617.27,860.06,606.1Z" transform="translate(-135.228 -53.465)" fill="#57b894"/>
    <path id="Trazado_75" data-name="Trazado 75" d="M880.466,720.459a324.006,324.006,0,0,0-2.6-34.777L789,644.866q.135,7.021.831,14.39a116.09,116.09,0,0,0,4.071,20.737l86.525,40.512Z" transform="translate(-135.228 -53.465)" fill="#57b894"/>
    <path id="Trazado_76" data-name="Trazado 76" d="M808.049,514.426,549.942,481.891c-11.7-97.31,5.976-192.311,36.15-286.786L844.2,227.64C805.252,320.324,793.82,415.987,808.049,514.426Z" transform="translate(-135.228 -53.465)" fill="#f2f2f2"/>
    <rect id="Rectángulo_54" data-name="Rectángulo 54" width="158.981" height="17.081" transform="matrix(0.992, 0.125, -0.125, 0.992, 486.928, 175.98)" fill="#a9d688"/>
    <rect id="Rectángulo_55" data-name="Rectángulo 55" width="215.478" height="8.54" transform="matrix(0.992, 0.125, -0.125, 0.992, 450.466, 213.099)" fill="#a9d688" opacity="0.3"/>
    <rect id="Rectángulo_56" data-name="Rectángulo 56" width="215.478" height="8.54" transform="matrix(0.992, 0.125, -0.125, 0.992, 447.016, 240.474)" fill="#a9d688" opacity="0.3"/>
    <rect id="Rectángulo_57" data-name="Rectángulo 57" width="215.478" height="8.54" transform="matrix(0.992, 0.125, -0.125, 0.992, 443.565, 267.849)" fill="#a9d688" opacity="0.3"/>
    <rect id="Rectángulo_58" data-name="Rectángulo 58" width="215.478" height="8.54" transform="matrix(0.992, 0.125, -0.125, 0.992, 440.114, 295.224)" fill="#a9d688" opacity="0.3"/>
    <rect id="Rectángulo_59" data-name="Rectángulo 59" width="215.478" height="8.54" transform="matrix(0.992, 0.125, -0.125, 0.992, 436.663, 322.599)" fill="#a9d688" opacity="0.3"/>
    <rect id="Rectángulo_60" data-name="Rectángulo 60" width="215.478" height="8.54" transform="matrix(0.992, 0.125, -0.125, 0.992, 433.214, 349.974)" fill="#a9d688" opacity="0.3"/>
    <rect id="Rectángulo_61" data-name="Rectángulo 61" width="215.478" height="8.54" transform="matrix(0.992, 0.125, -0.125, 0.992, 429.763, 377.35)" fill="#a9d688" opacity="0.3"/>
    <path id="Trazado_77" data-name="Trazado 77" d="M685.822,418.558,444.347,321.771c13.305-97.1,54.443-184.54,107.541-268.306l241.475,96.787C732.23,230.065,696.964,319.721,685.822,418.558Z" transform="translate(-135.228 -53.465)" fill="#e6e6e6"/>
    <rect id="Rectángulo_62" data-name="Rectángulo 62" width="158.981" height="17.081" transform="translate(442.862 42.348) rotate(21.841)" fill="#a9d688"/>
    <rect id="Rectángulo_63" data-name="Rectángulo 63" width="215.478" height="8.54" transform="translate(398.194 69.033) rotate(21.841)" fill="#a9d688" opacity="0.3"/>
    <rect id="Rectángulo_64" data-name="Rectángulo 64" width="215.478" height="8.54" transform="translate(387.929 94.644) rotate(21.841)" fill="#a9d688" opacity="0.3"/>
    <rect id="Rectángulo_65" data-name="Rectángulo 65" width="215.478" height="8.54" transform="translate(377.663 120.255) rotate(21.841)" fill="#a9d688" opacity="0.3"/>
    <rect id="Rectángulo_66" data-name="Rectángulo 66" width="215.478" height="8.54" transform="translate(367.398 145.866) rotate(21.841)" fill="#a9d688" opacity="0.3"/>
    <rect id="Rectángulo_67" data-name="Rectángulo 67" width="215.478" height="8.54" transform="translate(357.134 171.478) rotate(21.841)" fill="#a9d688" opacity="0.3"/>
    <rect id="Rectángulo_68" data-name="Rectángulo 68" width="215.478" height="8.54" transform="translate(346.869 197.089) rotate(21.841)" fill="#a9d688" opacity="0.3"/>
    <rect id="Rectángulo_69" data-name="Rectángulo 69" width="215.478" height="8.54" transform="translate(336.603 222.7) rotate(21.841)" fill="#a9d688" opacity="0.3"/>
    <path id="Trazado_78" data-name="Trazado 78" d="M626.1,441.868H365.954c-23.776-95.083-18.122-191.548,0-289.056H626.1C599.054,249.64,599.675,345.981,626.1,441.868Z" transform="translate(-135.228 -53.465)" fill="#f2f2f2"/>
    <rect id="Rectángulo_70" data-name="Rectángulo 70" width="158.981" height="17.081" transform="translate(270.8 128.91)" fill="#a9d688"/>
    <rect id="Rectángulo_71" data-name="Rectángulo 71" width="215.478" height="8.54" transform="translate(239.267 170.298)" fill="#a9d688" opacity="0.3"/>
    <rect id="Rectángulo_72" data-name="Rectángulo 72" width="215.478" height="8.54" transform="translate(239.267 197.889)" fill="#a9d688" opacity="0.3"/>
    <rect id="Rectángulo_73" data-name="Rectángulo 73" width="215.478" height="8.54" transform="translate(239.267 225.481)" fill="#a9d688" opacity="0.3"/>
    <rect id="Rectángulo_74" data-name="Rectángulo 74" width="215.478" height="8.54" transform="translate(239.267 253.073)" fill="#a9d688" opacity="0.3"/>
    <rect id="Rectángulo_75" data-name="Rectángulo 75" width="215.478" height="8.54" transform="translate(239.267 280.664)" fill="#a9d688" opacity="0.3"/>
    <rect id="Rectángulo_76" data-name="Rectángulo 76" width="215.478" height="8.54" transform="translate(239.267 308.256)" fill="#a9d688" opacity="0.3"/>
    <rect id="Rectángulo_77" data-name="Rectángulo 77" width="215.478" height="8.54" transform="translate(239.267 335.848)" fill="#a9d688" opacity="0.3"/>
    <path id="Trazado_79" data-name="Trazado 79" d="M450.749,384.163l-89.625-69.677a10.231,10.231,0,0,0-8.869-5.131H303.883a10.231,10.231,0,0,0-10.231,10.231V746.527a33.185,33.185,0,0,0,33.185,33.185H823.4a33.185,33.185,0,0,0,33.185-33.185v-332.2a30.163,30.163,0,0,0-30.163-30.163Z" transform="translate(-135.228 -53.465)" fill="#eebb4d"/>
    <path id="Trazado_81" data-name="Trazado 81" d="M223.454,303.95s4.421,23.432,1.326,25.2a53.745,53.745,0,0,0-7.074,5.305l7.958,11.053,19.011,3.979,18.127-16.8v-16.8s-5.305-8.4-4.421-13.706S223.454,303.95,223.454,303.95Z" transform="translate(-135.228 -53.465)" fill="#fbbebe"/>
    <path id="Trazado_82" data-name="Trazado 82" d="M223.454,303.95s4.421,23.432,1.326,25.2a53.745,53.745,0,0,0-7.074,5.305l7.958,11.053,19.011,3.979,18.127-16.8v-16.8s-5.305-8.4-4.421-13.706S223.454,303.95,223.454,303.95Z" transform="translate(-135.228 -53.465)" opacity="0.1"/>
    <path id="Trazado_83" data-name="Trazado 83" d="M192.948,344.183l-2.653,1.326s-5.748,2.211-8.4,21.222-8.842,64.549-7.074,65.876.884,10.169.884,10.169l13.264-69.413Z" transform="translate(-135.228 -53.465)" fill="#dde5ec"/>
    <path id="Trazado_84" data-name="Trazado 84" d="M224.387,236.281c-.4.844-.546,1.829-.926,2.689-1.723,3.9-6.628,3.031-10.167,4.508-3,1.251-5.233,4.685-5.467,8.4-.1,1.576.131,3.165-.01,4.736-.262,2.9-1.758,5.458-2.291,8.309-1.294,6.926,1.725,17.864,5.134,14.126,1.075-1.179,2.42-1.96,3.581-3.021,3.015-2.756,4.551-7.137,7-10.576a3.7,3.7,0,0,1,1.244-1.233c1.79-.889,3.383,1.491,4.8,3.051a7.512,7.512,0,0,0,11.27-.215,6.614,6.614,0,0,1,1.588-1.622,3.386,3.386,0,0,1,2.207-.217,14.486,14.486,0,0,1,8.834,5.26c1.181,1.446,2.169,3.147,3.586,4.268s3.482,1.49,4.758.158c2.567,1.815,3.524,5.667,3.531,9.175s-.712,6.993-.537,10.5,1.55,7.282,4.341,8.567a12.475,12.475,0,0,1,4.619-8.082c1.9-1.415,4.211-2.116,5.818-3.962,3.218-3.7,2.2-9.846,2.322-15.12.152-6.5,2.407-12.723,2.8-19.214.2-3.244-.136-6.721-1.843-9.288a15.262,15.262,0,0,0-4.807-4.164L260.6,233.571a6.476,6.476,0,0,0-2.25-1.067c-2.234-.4-4.165,1.694-6.283,2.618a12.722,12.722,0,0,1-5.514.669c-5.891-.16-7.549.984-11.509-2.854a2.791,2.791,0,0,0-2.392-.8C230.284,232.514,225.682,233.577,224.387,236.281Z" transform="translate(-135.228 -53.465)" fill="#2f2e41"/>
    <path id="Trazado_85" data-name="Trazado 85" d="M97.511,716.92l9.284,20.337-18.127,6.19-9.284-4.863L81.6,716.92Z" fill="#fbbebe"/>
    <path id="Trazado_86" data-name="Trazado 86" d="M224.338,787.627s-14.59-8.842-17.243-5.748-23.874,25.643-23.874,25.643S150.5,825.207,175.7,827.86s66.318-15.474,66.318-15.474,2.211-23.874.442-24.317-9.284,3.979-12.821,2.653a15.853,15.853,0,0,1-5.305-3.095Z" transform="translate(-135.228 -53.465)" fill="#2f2e41"/>
    <path id="Trazado_87" data-name="Trazado 87" d="M121.385,738.584V756.71l-23.874-5.3,5.305-18.569Z" fill="#fbbebe"/>
    <path id="Trazado_88" data-name="Trazado 88" d="M232.3,798.238s24.317-3.979,26.527,7.958,7.958,29.622,2.211,34.043-35.37,10.169-35.812,2.653,3.095-22.106,3.095-22.106,2.211-11.5.884-14.59S232.3,798.238,232.3,798.238Z" transform="translate(-135.228 -53.465)" fill="#2f2e41"/>
    <path id="Trazado_89" data-name="Trazado 89" d="M183.728,499.7s-19.96,126.559-3.6,188.456,27.854,98.592,27.854,98.592,28.3-7.958,28.3-13.263-11.053-84-13.706-91.518-7.074-10.169-3.095-16.358,10.611-45.98,10.611-45.98,14.59,65.876,15.474,67.644-9.285,103.014-9.285,103.014,29.185,21.179,30.948,5.305c.442-3.979,19.9-145.015,19.9-146.783s7.958-137.057-4.863-143.688S183.728,499.7,183.728,499.7Z" transform="translate(-135.228 -53.465)" fill="#2f2e41"/>
    <circle id="Elipse_14" data-name="Elipse 14" cx="30.064" cy="30.064" r="30.064" transform="translate(75.405 199.199)" fill="#fbbebe"/>
    <path id="Trazado_90" data-name="Trazado 90" d="M234.065,342.414v-3.095l-8.842-14.59s-8.842.884-10.169,4.863S198.7,365.4,198.7,365.4l-15.916,142.8s43.77,10.611,50.4,3.095,31.833-171.1,31.833-171.1l3.537-19.895s-6.073-8.842-7.458-7.516-24.375,26.969-24.375,26.969l-.442,3.979Z" transform="translate(-135.228 -53.465)" fill="#afafaf"/>
    <path id="Trazado_91" data-name="Trazado 91" d="M225,321.856s-8.179-1.99-10.832,2.874-2.653,6.632-5.305,8.4-18.127,9.727-19.011,12.821-19.9,100.8-19.9,100.8-9.284,29.18-4.863,49.075S166.42,519.7,175.7,521.472s10.611,1.768,10.611-.884,11.937-92.4,20.337-98.592,6.19-73.834,6.19-73.834,11.937-14.59,11.937-16.8S226.77,321.69,225,321.856Z" transform="translate(-135.228 -53.465)" fill="#dde5ec"/>
    <path id="Trazado_92" data-name="Trazado 92" d="M249.981,337.993c1.233.206,18.127-21.664,19.453-20.78s7.958,12.379,8.842,12.379,38.464,9.284,41.559,26.527-21.664,72.065-21.664,72.065-10.611,31.39-8.4,45.1a92.331,92.331,0,0,1-.884,31.39c-.884,3.537-3.979,7.516-3.095,9.284s-19.453-2.211-27.853,2.653-45.98,8.4-43.77,3.095,3.537-26.085,9.727-48.191S246,397.237,243.349,393.7,247.328,337.551,249.981,337.993Z" transform="translate(-135.228 -53.465)" fill="#dde5ec"/>
    <path id="Trazado_93" data-name="Trazado 93" d="M314.53,350.814l5.748,5.305s6.632,11.5,5.748,16.8,18.569,85.329,10.611,87.982-26.969,15.916-29.18,19.453-7.516,9.727-11.053,11.5-7.074,4.863-9.284,3.095-7.074-38.022-3.537-39.349,7.074-5.305,10.611-5.305,5.748-3.537,5.748-6.632S297.287,422,297.287,422l-5.748-43.77Z" transform="translate(-135.228 -53.465)" fill="#dde5ec"/>
    <path id="Trazado_94" data-name="Trazado 94" d="M229.691,240.68c-.358.638-.483,1.383-.818,2.033-1.524,2.952-5.861,2.291-8.989,3.408a7.488,7.488,0,0,0-4.834,6.347c-.088,1.191.116,2.392-.009,3.58-.231,2.194-1.554,4.126-2.025,6.281-1.144,5.236,1.525,13.5,4.539,10.679.95-.891,2.14-1.482,3.167-2.284,2.666-2.083,4.024-5.4,6.19-7.995a3.085,3.085,0,0,1,1.1-.932c1.583-.672,2.991,1.127,4.242,2.307a7.414,7.414,0,0,0,9.965-.163,5.482,5.482,0,0,1,1.4-1.226,3.463,3.463,0,0,1,1.951-.164,13.367,13.367,0,0,1,7.811,3.976,21.365,21.365,0,0,0,3.17,3.227c1.252.847,3.079,1.127,4.207.119,2.27,1.372,3.116,4.284,3.122,6.936s-.629,5.287-.474,7.934,1.371,5.5,3.838,6.476a9.24,9.24,0,0,1,4.084-6.109c1.681-1.069,3.723-1.6,5.145-3,2.846-2.795,1.944-7.443,2.053-11.43.135-4.917,2.128-9.618,2.48-14.525.176-2.452-.12-5.081-1.63-7.021a13.124,13.124,0,0,0-4.251-3.148l-13.418-7.36a6.2,6.2,0,0,0-1.989-.807c-1.975-.3-3.683,1.281-5.555,1.979a13.038,13.038,0,0,1-4.876.506c-5.209-.121-6.675.744-10.176-2.157a2.738,2.738,0,0,0-2.115-.6C234.9,237.833,230.836,238.636,229.691,240.68Z" transform="translate(-135.228 -53.465)" fill="#41332e"/>
  </g>
</svg>
