<svg xmlns="http://www.w3.org/2000/svg" width="156.011" height="198.189" viewBox="0 0 156.011 198.189">
  <g id="document-1178-517925" transform="translate(2.5 2.5)">
    <path id="Trazado_617" data-name="Trazado 617" d="M13,17.26h50.59V66.137H13Z" transform="translate(8.356 44.158)" fill="none" stroke="#000" stroke-linecap="round" stroke-linejoin="round" stroke-miterlimit="10" stroke-width="5"/>
    <path id="Trazado_618" data-name="Trazado 618" d="M29.962,31.74,42.3,43.662,67.6,19.211" transform="translate(62.048 50.059)" fill="none" stroke="#000" stroke-linecap="round" stroke-linejoin="round" stroke-miterlimit="10" stroke-width="5"/>
    <path id="Trazado_619" data-name="Trazado 619" d="M111.325,2H12.762A4.811,4.811,0,0,0,7.875,6.725V190.464a4.812,4.812,0,0,0,4.891,4.725H153.991a4.812,4.812,0,0,0,4.891-4.725V47.947" transform="translate(-7.875 -2)" fill="none" stroke="#000" stroke-linecap="round" stroke-linejoin="round" stroke-miterlimit="10" stroke-width="5"/>
    <path id="Trazado_620" data-name="Trazado 620" d="M32.708,2V43.226A4.812,4.812,0,0,0,37.6,47.951h42.67Z" transform="translate(70.742 -2)" fill="none" stroke="#000" stroke-linecap="round" stroke-linejoin="round" stroke-miterlimit="10" stroke-width="5"/>
    <path id="Trazado_621" data-name="Trazado 621" d="M13,35.788H118.876" transform="translate(8.356 100.201)" fill="none" stroke="#000" stroke-linecap="round" stroke-linejoin="round" stroke-miterlimit="10" stroke-width="5"/>
    <path id="Trazado_622" data-name="Trazado 622" d="M13,43.122H118.876" transform="translate(8.356 122.385)" fill="none" stroke="#000" stroke-linecap="round" stroke-linejoin="round" stroke-miterlimit="10" stroke-width="5"/>
  </g>
</svg>
