<svg xmlns="http://www.w3.org/2000/svg" width="82.524" height="70.769" viewBox="0 0 82.524 70.769">
  <path id="home" d="M84.962,36.922a2.228,2.228,0,0,1-2.713,0L64.685,22.545a1.862,1.862,0,0,1-.334-.275l-7.525-6.159a1.863,1.863,0,0,1-.334-.275L44.261,5.824,6.275,36.922a2.228,2.228,0,0,1-2.713,0,1.379,1.379,0,0,1,0-2.221L42.671,2.684a1.513,1.513,0,0,1,.185-.232,2.409,2.409,0,0,1,2.81,0,1.506,1.506,0,0,1,.189.232l10.2,8.35V6.821h0a1.813,1.813,0,0,1,1.965-1.608h7.859a2.188,2.188,0,0,1,1.389.471,1.468,1.468,0,0,1,.576,1.137V20.684L84.962,34.7A1.379,1.379,0,0,1,84.962,36.922ZM63.909,8.429H59.98V14.25l3.93,3.217ZM16.754,34.165a1.814,1.814,0,0,1,1.965,1.608V66.335c0,1.777,1.76,3.217,3.93,3.217H34.437V48.641A1.812,1.812,0,0,1,36.4,47.033H52.12a1.812,1.812,0,0,1,1.965,1.608v20.91H65.874c2.171,0,3.93-1.44,3.93-3.217V35.773a2,2,0,0,1,3.93,0V66.335c0,3.553-3.519,6.434-7.859,6.434H22.648c-4.34,0-7.859-2.881-7.859-6.434V35.773A1.813,1.813,0,0,1,16.754,34.165Zm33.4,35.385v-19.3H38.367v19.3H50.155Z" transform="translate(-3 -2)" fill="#727272" fill-rule="evenodd"/>
</svg>
