<svg xmlns="http://www.w3.org/2000/svg" width="75.524" height="62.77" viewBox="0 0 75.524 62.77">
  <path id="out" d="M51.233,74.462H10.247C4.586,74.462,0,70.839,0,66.368V37.231c0-4.469,4.586-8.094,10.247-8.094h8.2a1.872,1.872,0,0,1,2.049,1.619,1.872,1.872,0,0,1-2.049,1.619h-8.2c-3.394,0-6.148,2.176-6.148,4.856V66.368c0,2.682,2.754,4.856,6.148,4.856H51.233c3.4,0,6.148-2.174,6.148-4.856V37.231c0-2.681-2.752-4.856-6.148-4.856h-8.2a1.872,1.872,0,0,1-2.049-1.619,1.872,1.872,0,0,1,2.049-1.619h8.2c5.66,0,10.247,3.624,10.247,8.094V66.368C61.48,70.839,56.894,74.462,51.233,74.462ZM45.77,15.726,32.789,5.473v41.47a1.871,1.871,0,0,1-2.049,1.619,1.871,1.871,0,0,1-2.049-1.619V5.473L15.71,15.726a2.4,2.4,0,0,1-2.83,0,1.36,1.36,0,0,1,0-2.235L29.08.694a1.55,1.55,0,0,1,.195-.233A2.3,2.3,0,0,1,30.72,0c.008,0,.012,0,.02,0s.014,0,.02,0a2.3,2.3,0,0,1,1.445.458,1.443,1.443,0,0,1,.186.227L48.6,13.491a1.36,1.36,0,0,1,0,2.235A2.4,2.4,0,0,1,45.77,15.726Z" transform="matrix(-0.017, 1, -1, -0.017, 75.524, 1.3)" fill="#727272" fill-rule="evenodd"/>
</svg>
