<?xml version="1.0" encoding="utf-8"?>
<!-- Generator: Adobe Illustrator 24.2.1, SVG Export Plug-In . SVG Version: 6.00 Build 0)  -->
<svg version="1.1" id="Capa_1" xmlns="http://www.w3.org/2000/svg" xmlns:xlink="http://www.w3.org/1999/xlink" x="0px" y="0px"
	 viewBox="0 0 91.2 91.2" style="enable-background:new 0 0 91.2 91.2;" xml:space="preserve">
<style type="text/css">
	.st0{fill:none;stroke:#1D1D1B;stroke-width:3;stroke-linecap:round;stroke-linejoin:round;stroke-miterlimit:10;}
	.st1{fill:none;stroke:#1D1D1B;stroke-miterlimit:10;}
</style>
<g id="user-connection-25-518002" transform="translate(-2.474 -2.474)">
	<g id="Grupo_298" transform="translate(25.689 16.949)">
		<path id="Trazado_1440" class="st0" d="M44.8,57.8H0V44.6c0-7.7,6.3-14,14-14h16.9c7.7,0,14,6.3,14,14L44.8,57.8L44.8,57.8z"/>
		<ellipse id="Elipse_155" class="st0" cx="22.4" cy="9.8" rx="9.8" ry="9.8"/>
	</g>
	<g id="Grupo_301" transform="translate(3.974 3.974)">
		<path id="Trazado_1445" class="st1" d="M66.5,70.8H21.7V57.6c0-7.7,6.3-14,14-14h16.9c7.7,0,14,6.3,14,14L66.5,70.8L66.5,70.8z"/>
		<ellipse id="Elipse_157" class="st1" cx="44.1" cy="22.8" rx="9.8" ry="9.8"/>
		<g id="Grupo_300">
			<ellipse id="Elipse_158" class="st1" cx="44.1" cy="44.1" rx="44.1" ry="44.1"/>
		</g>
	</g>
</g>
</svg>
