<svg xmlns="http://www.w3.org/2000/svg" width="984.4" height="651.953" viewBox="0 0 984.4 651.953"><g transform="translate(-0.001 0)"><path d="M472.864,398.128s85,4.1,90.121,33.8S463.647,435,463.647,435Z" transform="translate(-84.942 -125.273)" fill="#a0616a"/><path d="M341.792,306.128s14.337,4.1,25.6,28.675,33.8,47.109,33.8,47.109l91.145,17.41-15.361,46.084L389.924,434.14l-54.277-30.723Z" transform="translate(-88.027 -127.49)" fill="#575a89"/><path d="M341.792,306.128s14.337,4.1,25.6,28.675,33.8,47.109,33.8,47.109l91.145,17.41-15.361,46.084L389.924,434.14l-54.277-30.723Z" transform="translate(-88.027 -127.49)" opacity="0.1"/><rect width="107.53" height="2.048" transform="translate(791.867 95.174)" fill="#3f3d56"/><rect width="341.025" height="2.048" transform="translate(366.866 95.174)" fill="#3f3d56"/><path d="M115.793,129.012l9.217,58.374,63.494,3.072-7.169-86.024Z" transform="translate(2.79 2.517)" fill="#efc9b7"/><path d="M144.219,641.087l-3.072,129.036h96.265l14.337-51.2,11.265,51.2H363.376s2.048-147.47-9.217-148.494S144.219,641.087,144.219,641.087Z" transform="translate(-92.714 -119.888)" fill="#262524"/><circle cx="55.301" cy="55.301" r="55.301" transform="translate(83.764 36.288)" fill="#efc9b7"/><path d="M138.864,654.849l28.675-141.325-37.892-187.41,87.268-32.746,42.793-5.145,21.513-4.016,15.355,4.016s61.446,15.361,64.518,26.627S348.8,418.283,348.8,418.283l-14.337,75.783,31.747,136.205s-132.109,45.06-225.3,24.578Z" transform="translate(-92.991 -128.019)" fill="#575a89"/><path d="M82.293,243.934v37.892l120.835.165L88.438,269.536Z" transform="translate(1.983 5.878)" opacity="0.1"/><path d="M72.159,346.631l151.7-21.7L72.159,367.9Z" transform="translate(1.739 7.83)" opacity="0.1"/><path d="M307.676,248.934l-16.264,58.6,27.529-56.67Z" transform="translate(7.022 5.999)" opacity="0.1"/><path d="M276.944,167.822l10.169-4.071s-21.263-23.41-50.847-21.374l8.321-9.16s-20.339-8.142-38.828,13.231c-9.72,11.236-20.966,24.443-27.976,39.32h-10.89l4.545,10.008-15.909,10.008,16.329-1.8a55.927,55.927,0,0,0-.443,16.6,21.479,21.479,0,0,0,7.865,14.051h0s12.612-26.105,12.612-30.177v10.178s10.169-9.16,10.169-15.267l5.547,7.125,2.773-11.2,34.206,11.2-5.547-9.16,21.263,3.053-8.321-11.2s24.037,13.231,24.961,24.427,7.96,21.8,7.96,21.8S303.755,183.088,276.944,167.822Z" transform="translate(-92.367 -131.694)" fill="#2f2e41"/><rect width="393.254" height="410.663" transform="translate(238.915 240.595)" fill="#d0cde1"/><rect width="290.844" height="40.964" transform="translate(279.879 330.716)" fill="#8a8a8a"/><rect width="190.476" height="20.482" transform="translate(329.878 439.27)" fill="#8a8a8a"/><rect width="190.476" height="20.482" transform="translate(330.246 475.114)" fill="#8a8a8a"/><rect width="95.238" height="20.482" transform="translate(330.613 510.957)" fill="#8a8a8a"/><rect width="44.036" height="20.482" transform="translate(531.807 614.391)" fill="#8a8a8a"/><path d="M299.647,417.233s89.1-13.313,102.41,6.145-94.217,29.7-94.217,29.7Z" transform="translate(-88.894 -124.92)" fill="#efc9b7"/><path d="M140.751,324.128h-6.417a10.461,10.461,0,0,0-7.123,2.772c-6.091,5.656-18.971,20.251-24.351,46.384C95.69,408.1,83.4,475.695,111.052,480.815s208.916-19.458,208.916-19.458l-13.313-47.108L175.57,415.273s2.048-22.53-2.048-36.868S140.751,324.128,140.751,324.128Z" transform="translate(-93.853 -127.057)" fill="#575a89"/><circle cx="41.988" cy="41.988" r="41.988" transform="translate(324.878 54.21)" fill="#d0cde1"/><circle cx="41.988" cy="41.988" r="41.988" transform="translate(516.385 54.21)" fill="#a9d688"/><path d="M878.159,269.652a43.012,43.012,0,1,1,43.012-43.012A43.012,43.012,0,0,1,878.159,269.652Zm0-83.976a40.964,40.964,0,1,0,40.964,40.964,40.964,40.964,0,0,0-40.964-40.964Z" transform="translate(-128.28 -130.442)" fill="#3f3d56"/><path d="M1065.162,269.652a43.012,43.012,0,1,1,43.012-43.012A43.012,43.012,0,0,1,1065.162,269.652Zm0-83.976a40.964,40.964,0,1,0,40.964,40.964,40.964,40.964,0,0,0-40.964-40.964Z" transform="translate(-123.773 -130.442)" fill="#3f3d56"/><path d="M404.069,113.026l-18.2-24.26,6.554-4.917,12.528,16.7,57.594-57.593,5.792,5.792Z" transform="translate(151.588 9.228)" fill="#3f3d56"/><rect width="836.273" height="2.849" transform="translate(16.893 649.105)" fill="#3f3d56"/></g></svg>