<svg xmlns="http://www.w3.org/2000/svg" width="1125.954" height="817.575" viewBox="0 0 1125.954 817.575"><rect width="318.265" height="3.09" transform="translate(807.69 796.879)" fill="#3f3d56"/><path d="M765.971,223.569v21.305l14.912,23.434L791.536,225.7Z" transform="translate(234.765 121.839)" fill="#f1b7a1"/><path d="M944.122,284.231l11.65-3.326s18.176,3.326,18.176,24.63,4.261,106.52,4.261,106.52l-4.261,49s6.391,2.13,4.261,8.522-6.391,21.3-8.521,19.173-2.13-6.391-2.13-6.391-34.086,6.391-31.956,0,2.13-21.3,4.261-21.3-2.13-63.912-2.13-63.912Z" transform="translate(54.484 -128.428)" fill="#e3dfc8"/><path d="M639.8,221l27.7,34.087,34.087,40.477,10.651-49-19.043-2.99-19.3-28.967Z" transform="translate(178.377 116.954)" fill="#f1b7a1"/><path d="M867.446,393.371s-31.956,17.043-10.652,132.085L863.185,640.5,867.446,830.1h42.607l8.521-187.475,25.565-119.3,40.478,106.52L969.7,819.451l57.521,8.522L1046.4,614.933l-34.086-157.649-25.565-44.738-5.326-11.717Z" transform="translate(7.597 -67.137)" fill="#2f2e41"/><path d="M867.893,671.913,861.5,691.087s-8.522,34.086,21.3,29.826,19.174-23.435,19.174-23.435l-2.13-25.565Z" transform="translate(23.693 84.662)" fill="#2f2e41"/><path d="M930.927,669.279s-6.392,21.3-6.392,31.956,4.261,15.287,4.261,15.287,121.432,8.147,119.3-2.5-14.913-14.913-14.913-14.913l-29.826-6.392-21.3-17.043-42.608-10.652Z" transform="translate(48.506 80.904)" fill="#2f2e41"/><circle cx="40.478" cy="40.478" r="40.478" transform="translate(889.956 21.588)" fill="#f1b7a1"/><path d="M757.056,51.2l6.39,59.652-14.912,27.7L712.317,98.074l-4.261-34.087Z" transform="translate(203.203 27.904)" fill="#f1b7a1"/><path d="M941.053,282.778l-33.413-26.57-7.065,9.527-53.26,21.3,2.13,93.737s2.13,78.825,14.913,87.346l-5.326,7.456L985.791,480.9v-57.52l27.7-123.563-49-27.7-6.1-8.625Z" transform="translate(6.423 -141.888)" fill="#e3dfc8"/><path d="M881.474,281.188l-3.1-6.428-7.549,2.167s-14.913,6.391-25.565,34.086-40.478,89.477-40.478,89.477-8.522,10.652-2.13,21.3,12.782,34.086,12.782,34.086-6.391-2.13-2.13,6.391,4.261,17.043,17.043,14.913,38.347-8.522,36.217-14.913-4.261-17.043-8.521-17.043-10.652-31.956-10.652-31.956l4.261-17.043L883.6,357.883Z" transform="translate(-6.02 -131.777)" fill="#e3dfc8"/><path d="M919.658,214.454s-6.391,0-6.391-2.13c0,0-22.284-.68-31.381,9.247s-6.967-4.986-6.967-4.986-23.434-10.652-4.261-21.3l2.13,2.13s4.261-6.391,19.174-8.522l-2.13-2.13s0-2.13,10.652-2.13,38.347-10.652,40.478,12.782c0,0,17.043-6.391,17.043,14.913s-2.13,31.956-2.13,31.956-4.261-10.652-12.782-4.261S919.658,214.454,919.658,214.454Z" transform="translate(15.035 -182.213)" fill="#2f2e41"/><ellipse cx="164.541" cy="17.003" rx="164.541" ry="17.003" transform="translate(0 687.742)" fill="#e6e6e6"/><rect width="199.643" height="247.908" transform="translate(64.719 456.915)" fill="#e6e6e6"/><rect width="142.602" height="6.582" transform="translate(93.565 543.494)" fill="#fff"/><rect width="142.602" height="6.582" transform="translate(93.565 566.53)" fill="#fff"/><rect width="142.602" height="6.582" transform="translate(93.565 589.565)" fill="#fff"/><rect width="142.602" height="6.582" transform="translate(93.565 612.601)" fill="#fff"/><path d="M335.9,431.479a39.062,39.062,0,1,1-6.054-20.925,39.062,39.062,0,0,1,6.054,20.925Z" transform="translate(-132.192 -77.555)" fill="#e6e6e6"/><path d="M323.646,406.2l-38.559,38.552c-2.423-3.752-15.925-21.188-15.925-21.188a54.643,54.643,0,0,1,5.527-4.879l11.2,14.928,33.246-33.246A39,39,0,0,1,323.646,406.2Z" transform="translate(-125.986 -73.2)" fill="#fff"/><ellipse cx="164.541" cy="17.003" rx="164.541" ry="17.003" transform="translate(497.822 677.766)" fill="#e6e6e6"/><rect width="199.643" height="247.908" transform="translate(563.452 446.941)" fill="#e6e6e6"/><rect width="142.602" height="6.582" transform="translate(592.61 584.943)" fill="#fff"/><rect width="142.602" height="6.582" transform="translate(592.61 607.978)" fill="#fff"/><rect width="142.602" height="6.582" transform="translate(592.61 631.014)" fill="#fff"/><rect width="142.602" height="6.582" transform="translate(592.61 654.049)" fill="#fff"/><path d="M626.741,554.06H581.435a158.46,158.46,0,0,1,0-54.021h45.307a97.2,97.2,0,0,0,0,54.021Z" transform="translate(12.541 -18.88)" fill="#fff"/><rect width="83.367" height="5.485" transform="translate(653.782 486.217)" fill="#fff"/><rect width="83.367" height="5.485" transform="translate(653.782 505.964)" fill="#fff"/><rect width="83.367" height="5.485" transform="translate(653.782 525.708)" fill="#fff"/><rect width="83.367" height="5.485" transform="translate(653.782 545.453)" fill="#fff"/><path d="M680.521,425.855a39.062,39.062,0,1,1-6.054-20.925A39.062,39.062,0,0,1,680.521,425.855Z" transform="translate(22.58 -80.62)" fill="#e6e6e6"/><path d="M668.261,400.575,629.7,439.127c-2.423-3.752-15.925-21.188-15.925-21.188a54.631,54.631,0,0,1,5.527-4.879l11.2,14.928,33.246-33.246A39.01,39.01,0,0,1,668.261,400.575Z" transform="translate(28.614 -76.265)" fill="#fff"/><ellipse cx="192.838" cy="19.927" rx="192.838" ry="19.927" transform="translate(224.188 777.722)" fill="#3f3d56"/><rect width="233.977" height="290.543" transform="translate(297.079 511.604)" fill="#a9d688"/><rect width="167.126" height="7.714" transform="translate(329.895 573.312)" fill="#fff"/><rect width="167.126" height="7.714" transform="translate(329.895 600.311)" fill="#fff"/><rect width="167.126" height="7.714" transform="translate(329.895 627.307)" fill="#fff"/><rect width="167.126" height="7.714" transform="translate(329.895 654.304)" fill="#fff"/><rect width="167.126" height="7.714" transform="translate(329.895 681.303)" fill="#fff"/><rect width="87.42" height="30.854" transform="translate(369.118 709.585)" fill="#fff"/><path d="M536.4,459.665a58.7,58.7,0,1,1-9.1-31.444,58.7,58.7,0,0,1,9.1,31.444Z" transform="translate(-63.839 -72.908)" fill="#a9d688"/><path d="M517.973,421.677,460.029,479.61c-3.642-5.638-23.931-31.84-23.931-31.84a82.12,82.12,0,0,1,8.305-7.331l16.824,22.433,49.96-49.96a58.606,58.606,0,0,1,6.786,8.765Z" transform="translate(-55.216 -66.363)" fill="#fff"/></svg>